<?xml version="1.0" standalone="no"?>
<!DOCTYPE svg PUBLIC "-//W3C//DTD SVG 20010904//EN"
 "http://www.w3.org/TR/2001/REC-SVG-20010904/DTD/svg10.dtd">
<svg version="1.0" xmlns="http://www.w3.org/2000/svg"
 width="554.000000pt" height="554.000000pt" viewBox="0 0 554.000000 554.000000"
 preserveAspectRatio="xMidYMid meet">
<metadata>
Created by potrace 1.11, written by Peter Selinger 2001-2013
</metadata>
<g transform="translate(0.000000,554.000000) scale(0.100000,-0.100000)"
fill="#000000" stroke="none">
<path d="M1625 3114 c-633 -636 -1152 -1159 -1155 -1163 -3 -3 -25 -24 -48
-46 l-43 -40 -182 -2 c-100 0 -185 -2 -189 -2 -5 -1 -8 -108 -8 -238 l0 -238
267 1 268 1 180 182 c149 151 1964 1965 2012 2010 13 13 22 8 68 -40 45 -46
542 -536 1151 -1135 89 -88 358 -352 598 -588 l436 -430 280 0 280 -1 0 238
c0 182 -3 237 -12 238 -7 0 -91 1 -185 2 l-173 2 -324 326 -324 327 1 616 2
616 -361 0 -361 0 1 -246 c1 -135 -2 -248 -5 -250 -3 -2 -235 226 -515 507
l-509 510 -1150 -1157z"/>
<path d="M2462 2962 c-155 -158 -584 -589 -953 -958 l-671 -671 238 -1 239 0
718 719 c396 396 722 719 725 719 4 0 331 -324 726 -719 l720 -720 233 1 c128
0 233 3 233 5 0 6 -1915 1913 -1920 1912 -3 -1 -132 -130 -288 -287z"/>
<path d="M2859 2002 l-46 -3 0 -160 0 -160 131 3 130 3 1 157 0 157 -85 3
c-47 2 -106 2 -131 0z"/>
<path d="M2450 1840 l0 -160 130 0 130 0 0 160 0 160 -130 0 -130 0 0 -160z"/>
<path d="M2478 1602 l-28 -3 0 -160 0 -159 130 0 130 0 0 159 0 160 -102 3
c-57 2 -115 2 -130 0z"/>
<path d="M2813 1440 l0 -160 131 0 131 0 0 160 0 160 -131 0 -131 0 0 -160z"/>
</g>
</svg>
